<svg xmlns="http://www.w3.org/2000/svg" xmlns:xlink="http://www.w3.org/1999/xlink" width="3000" zoomAndPan="magnify" viewBox="0 0 2250 2250.000011" height="3000" preserveAspectRatio="xMidYMid meet" version="1.0"><defs><filter x="0%" y="0%" width="100%" height="100%" id="35eed3be3f"><feColorMatrix values="0 0 0 0 1 0 0 0 0 1 0 0 0 0 1 0 0 0 1 0" color-interpolation-filters="sRGB"/></filter><g/><clipPath id="c1555e9186"><path d="M 0.5 0 L 2249.5 0 L 2249.5 2249 L 0.5 2249 Z M 0.5 0 " clip-rule="nonzero"/></clipPath><mask id="cf37b2d980"><g filter="url(#35eed3be3f)"><rect x="-225" width="2700" fill="#000000" y="-225.000001" height="2700.000013" fill-opacity="0.9"/></g></mask><clipPath id="ef3efcccce"><path d="M 25.710938 0 L 2224.289062 0 L 2224.289062 2249 L 25.710938 2249 Z M 25.710938 0 " clip-rule="nonzero"/></clipPath><clipPath id="dd1e5d68a2"><path d="M 1125 0 C 517.878906 0 25.710938 503.457031 25.710938 1124.5 C 25.710938 1745.542969 517.878906 2249 1125 2249 C 1732.121094 2249 2224.289062 1745.542969 2224.289062 1124.5 C 2224.289062 503.457031 1732.121094 0 1125 0 Z M 1125 0 " clip-rule="nonzero"/></clipPath><clipPath id="fbbd6906d3"><path d="M 25.710938 0.00390625 L 2224.484375 0.00390625 L 2224.484375 2248.996094 L 25.710938 2248.996094 Z M 25.710938 0.00390625 " clip-rule="nonzero"/></clipPath><clipPath id="3bd8fc2544"><path d="M 1124.996094 0.00390625 C 517.878906 0.00390625 25.710938 503.457031 25.710938 1124.5 C 25.710938 1745.542969 517.878906 2248.996094 1124.996094 2248.996094 C 1732.117188 2248.996094 2224.285156 1745.542969 2224.285156 1124.5 C 2224.285156 503.457031 1732.117188 0.00390625 1124.996094 0.00390625 Z M 1124.996094 0.00390625 " clip-rule="nonzero"/></clipPath><clipPath id="d0e161d2b1"><rect x="0" width="2250" y="0" height="2249"/></clipPath></defs><g clip-path="url(#c1555e9186)"><g mask="url(#cf37b2d980)"><g transform="matrix(1, 0, 0, 1, 0.000000000000000056, -0.00000000000012564)"><g clip-path="url(#d0e161d2b1)"><g clip-path="url(#ef3efcccce)"><g clip-path="url(#dd1e5d68a2)"><path fill="#9fc131" d="M 25.710938 0 L 2224.289062 0 L 2224.289062 2250.109375 L 25.710938 2250.109375 Z M 25.710938 0 " fill-opacity="1" fill-rule="nonzero"/></g></g><g clip-path="url(#fbbd6906d3)"><g clip-path="url(#3bd8fc2544)"><path stroke-linecap="butt" transform="matrix(0.749667, 0, 0, 0.749667, 25.710492, 0.00281778)" fill="none" stroke-linejoin="miter" d="M 1466.365525 0.00145194 C 656.51619 0.00145194 0.000594735 671.57061 0.000594735 1499.995904 C 0.000594735 2328.421199 656.51619 2999.990356 1466.365525 2999.990356 C 2276.22007 2999.990356 2932.735665 2328.421199 2932.735665 1499.995904 C 2932.735665 671.57061 2276.22007 0.00145194 1466.365525 0.00145194 Z M 1466.365525 0.00145194 " stroke="#f1f0ec" stroke-width="70" stroke-opacity="1" stroke-miterlimit="4"/></g></g></g></g></g></g><g fill="#f1f0ec" fill-opacity="1"><g transform="translate(356.277018, 948.40326)"><g><path d="M 702.71875 -479.875 L 577.625 0 L 436.125 0 L 359.5625 -315.8125 L 280.265625 0 L 138.765625 0 L 17.09375 -479.875 L 142.1875 -479.875 L 211.21875 -130.5625 L 296.671875 -479.875 L 425.1875 -479.875 L 507.21875 -130.5625 L 576.9375 -479.875 Z M 702.71875 -479.875 "/></g></g></g><g fill="#f1f0ec" fill-opacity="1"><g transform="translate(1075.405731, 948.40326)"><g><path d="M 401.9375 -196.875 C 401.9375 -185.9375 401.253906 -174.539062 399.890625 -162.6875 L 135.34375 -162.6875 C 137.164062 -138.988281 144.796875 -120.875 158.234375 -108.34375 C 171.679688 -95.8125 188.207031 -89.546875 207.8125 -89.546875 C 236.976562 -89.546875 257.253906 -101.851562 268.640625 -126.46875 L 393.0625 -126.46875 C 386.675781 -101.394531 375.164062 -78.832031 358.53125 -58.78125 C 341.90625 -38.726562 321.054688 -23.003906 295.984375 -11.609375 C 270.921875 -0.222656 242.894531 5.46875 211.90625 5.46875 C 174.539062 5.46875 141.273438 -2.503906 112.109375 -18.453125 C 82.941406 -34.398438 60.15625 -57.1875 43.75 -86.8125 C 27.34375 -116.4375 19.140625 -151.070312 19.140625 -190.71875 C 19.140625 -230.363281 27.226562 -265 43.40625 -294.625 C 59.582031 -324.25 82.253906 -347.035156 111.421875 -362.984375 C 140.585938 -378.929688 174.082031 -386.90625 211.90625 -386.90625 C 248.820312 -386.90625 281.632812 -379.15625 310.34375 -363.65625 C 339.050781 -348.164062 361.492188 -326.066406 377.671875 -297.359375 C 393.847656 -268.648438 401.9375 -235.15625 401.9375 -196.875 Z M 282.3125 -227.625 C 282.3125 -247.675781 275.472656 -263.625 261.796875 -275.46875 C 248.128906 -287.320312 231.046875 -293.25 210.546875 -293.25 C 190.941406 -293.25 174.414062 -287.550781 160.96875 -276.15625 C 147.53125 -264.769531 139.21875 -248.59375 136.03125 -227.625 Z M 282.3125 -227.625 "/></g></g></g><g fill="#f1f0ec" fill-opacity="1"><g transform="translate(1496.492569, 948.40326)"><g><path d="M 159.28125 -327.4375 C 170.207031 -345.207031 185.925781 -359.5625 206.4375 -370.5 C 226.945312 -381.4375 250.414062 -386.90625 276.84375 -386.90625 C 308.289062 -386.90625 336.773438 -378.929688 362.296875 -362.984375 C 387.816406 -347.035156 407.984375 -324.25 422.796875 -294.625 C 437.609375 -265 445.015625 -230.59375 445.015625 -191.40625 C 445.015625 -152.207031 437.609375 -117.679688 422.796875 -87.828125 C 407.984375 -57.984375 387.816406 -34.972656 362.296875 -18.796875 C 336.773438 -2.617188 308.289062 5.46875 276.84375 5.46875 C 249.957031 5.46875 226.488281 0.113281 206.4375 -10.59375 C 186.382812 -21.300781 170.664062 -35.539062 159.28125 -53.3125 L 159.28125 0 L 42.375 0 L 42.375 -505.84375 L 159.28125 -505.84375 Z M 326.0625 -191.40625 C 326.0625 -220.570312 317.972656 -243.46875 301.796875 -260.09375 C 285.617188 -276.726562 265.679688 -285.046875 241.984375 -285.046875 C 218.742188 -285.046875 199.035156 -276.613281 182.859375 -259.75 C 166.679688 -242.894531 158.59375 -219.882812 158.59375 -190.71875 C 158.59375 -161.550781 166.679688 -138.535156 182.859375 -121.671875 C 199.035156 -104.816406 218.742188 -96.390625 241.984375 -96.390625 C 265.222656 -96.390625 285.046875 -104.929688 301.453125 -122.015625 C 317.859375 -139.109375 326.0625 -162.238281 326.0625 -191.40625 Z M 326.0625 -191.40625 "/></g></g></g><g fill="#6667ab" fill-opacity="1"><g transform="translate(817.536807, 1469.554582)"><g><path d="M 511.65625 0 L 456.125 -53.8125 C 400.882812 -11.675781 334.828125 9.390625 257.953125 9.390625 C 211.828125 9.390625 171.679688 1.847656 137.515625 -13.234375 C 103.347656 -28.328125 77.007812 -49.679688 58.5 -77.296875 C 40 -104.921875 30.75 -137.238281 30.75 -174.25 C 30.75 -211.832031 40.851562 -245.851562 61.0625 -276.3125 C 81.28125 -306.78125 111.609375 -331.695312 152.046875 -351.0625 C 137.234375 -369.28125 126.695312 -386.789062 120.4375 -403.59375 C 114.175781 -420.394531 111.046875 -438.757812 111.046875 -458.6875 C 111.046875 -487.164062 118.445312 -513.078125 133.25 -536.421875 C 148.050781 -559.765625 169.546875 -578.128906 197.734375 -591.515625 C 225.921875 -604.898438 259.378906 -611.59375 298.109375 -611.59375 C 337.398438 -611.59375 370.710938 -604.472656 398.046875 -590.234375 C 425.378906 -575.992188 445.878906 -556.914062 459.546875 -533 C 473.210938 -509.082031 479.476562 -482.890625 478.34375 -454.421875 L 340.8125 -454.421875 C 341.382812 -469.796875 337.539062 -481.609375 329.28125 -489.859375 C 321.019531 -498.117188 310.054688 -502.25 296.390625 -502.25 C 282.722656 -502.25 271.332031 -498.265625 262.21875 -490.296875 C 253.113281 -482.328125 248.5625 -472.078125 248.5625 -459.546875 C 248.5625 -447.585938 252.40625 -435.054688 260.09375 -421.953125 C 267.78125 -408.859375 279.878906 -393.769531 296.390625 -376.6875 L 442.46875 -234.046875 C 443.601562 -236.890625 445.164062 -240.300781 447.15625 -244.28125 C 449.15625 -248.269531 451.289062 -252.828125 453.5625 -257.953125 L 485.171875 -311.765625 L 631.21875 -311.765625 L 590.21875 -237.453125 C 574.84375 -203.859375 557.191406 -171.972656 537.265625 -141.796875 L 681.609375 0 Z M 264.796875 -108.484375 C 302.941406 -108.484375 336.820312 -119.300781 366.4375 -140.9375 L 233.1875 -269.921875 C 192.1875 -248.847656 171.6875 -220.375 171.6875 -184.5 C 171.6875 -162.863281 180.082031 -144.785156 196.875 -130.265625 C 213.675781 -115.742188 236.316406 -108.484375 264.796875 -108.484375 Z M 264.796875 -108.484375 "/></g></g></g><g fill="#f1f0ec" fill-opacity="1"><g transform="translate(382.375172, 1854.492402)"><g><path d="M 343.515625 -464.640625 L 343.515625 -373.96875 L 154.21875 -373.96875 L 154.21875 -276.015625 L 295.859375 -276.015625 L 295.859375 -187.984375 L 154.21875 -187.984375 L 154.21875 0 L 41.03125 0 L 41.03125 -464.640625 Z M 343.515625 -464.640625 "/></g></g><g transform="translate(744.426244, 1854.492402)"><g><path d="M 154.21875 -489.796875 L 154.21875 0 L 41.03125 0 L 41.03125 -489.796875 Z M 154.21875 -489.796875 "/></g></g></g><g fill="#f1f0ec" fill-opacity="1"><g transform="translate(939.68239, 1854.492402)"><g><path d="M 209.15625 5.296875 C 172.96875 5.296875 140.421875 -2.421875 111.515625 -17.859375 C 82.617188 -33.304688 59.894531 -55.367188 43.34375 -84.046875 C 26.800781 -112.734375 18.53125 -146.273438 18.53125 -184.671875 C 18.53125 -222.617188 26.914062 -256.039062 43.6875 -284.9375 C 60.457031 -313.84375 83.398438 -336.015625 112.515625 -351.453125 C 141.640625 -366.898438 174.296875 -374.625 210.484375 -374.625 C 246.660156 -374.625 279.3125 -366.898438 308.4375 -351.453125 C 337.5625 -336.015625 360.503906 -313.84375 377.265625 -284.9375 C 394.035156 -256.039062 402.421875 -222.617188 402.421875 -184.671875 C 402.421875 -146.722656 393.925781 -113.296875 376.9375 -84.390625 C 359.957031 -55.484375 336.796875 -33.304688 307.453125 -17.859375 C 278.109375 -2.421875 245.34375 5.296875 209.15625 5.296875 Z M 209.15625 -92.671875 C 230.78125 -92.671875 249.203125 -100.613281 264.421875 -116.5 C 279.648438 -132.382812 287.265625 -155.109375 287.265625 -184.671875 C 287.265625 -214.234375 279.867188 -236.957031 265.078125 -252.84375 C 250.296875 -268.726562 232.097656 -276.671875 210.484375 -276.671875 C 188.421875 -276.671875 170.109375 -268.835938 155.546875 -253.171875 C 140.984375 -237.503906 133.703125 -214.671875 133.703125 -184.671875 C 133.703125 -155.109375 140.867188 -132.382812 155.203125 -116.5 C 169.546875 -100.613281 187.53125 -92.671875 209.15625 -92.671875 Z M 209.15625 -92.671875 "/></g></g></g><g fill="#f1f0ec" fill-opacity="1"><g transform="translate(1361.303165, 1854.492402)"><g><path d="M 571.21875 -369.328125 L 471.265625 0 L 346.171875 0 L 287.921875 -239.609375 L 227.6875 0 L 103.25 0 L 2.640625 -369.328125 L 115.828125 -369.328125 L 168.125 -105.234375 L 230.34375 -369.328125 L 350.140625 -369.328125 L 413.015625 -106.5625 L 464.640625 -369.328125 Z M 571.21875 -369.328125 "/></g></g></g></svg>