<svg xmlns="http://www.w3.org/2000/svg" xmlns:xlink="http://www.w3.org/1999/xlink" width="500" zoomAndPan="magnify" viewBox="0 0 375 374.999991" height="500" preserveAspectRatio="xMidYMid meet" version="1.0"><defs><filter x="0%" y="0%" width="100%" height="100%" id="c0fda09343"><feColorMatrix values="0 0 0 0 1 0 0 0 0 1 0 0 0 0 1 0 0 0 1 0" color-interpolation-filters="sRGB"/></filter><g/><mask id="66b2969761"><g filter="url(#c0fda09343)"><rect x="-37.5" width="450" fill="#000000" y="-37.499999" height="449.999989" fill-opacity="0.87"/></g></mask><clipPath id="33ec5dec0e"><path d="M 19.277344 19.277344 L 311.722656 19.277344 L 311.722656 311.722656 L 19.277344 311.722656 Z M 19.277344 19.277344 " clip-rule="nonzero"/></clipPath><clipPath id="af4a777b2e"><path d="M 165.5 19.277344 C 84.742188 19.277344 19.277344 84.742188 19.277344 165.5 C 19.277344 246.257812 84.742188 311.722656 165.5 311.722656 C 246.257812 311.722656 311.722656 246.257812 311.722656 165.5 C 311.722656 84.742188 246.257812 19.277344 165.5 19.277344 Z M 165.5 19.277344 " clip-rule="nonzero"/></clipPath><clipPath id="5c32983f64"><path d="M 19.277344 19.277344 L 311.710938 19.277344 L 311.710938 311.710938 L 19.277344 311.710938 Z M 19.277344 19.277344 " clip-rule="nonzero"/></clipPath><clipPath id="05fd6054f8"><path d="M 165.492188 19.277344 C 84.742188 19.277344 19.277344 84.742188 19.277344 165.492188 C 19.277344 246.246094 84.742188 311.710938 165.492188 311.710938 C 246.246094 311.710938 311.710938 246.246094 311.710938 165.492188 C 311.710938 84.742188 246.246094 19.277344 165.492188 19.277344 Z M 165.492188 19.277344 " clip-rule="nonzero"/></clipPath><clipPath id="ad3e07c0c1"><rect x="0" width="331" y="0" height="331"/></clipPath></defs><g mask="url(#66b2969761)"><g transform="matrix(1, 0, 0, 1, 22, 22)"><g clip-path="url(#ad3e07c0c1)"><g clip-path="url(#33ec5dec0e)"><g clip-path="url(#af4a777b2e)"><path fill="#6667ab" d="M 19.277344 19.277344 L 311.722656 19.277344 L 311.722656 311.722656 L 19.277344 311.722656 Z M 19.277344 19.277344 " fill-opacity="1" fill-rule="nonzero"/></g></g><g clip-path="url(#5c32983f64)"><g clip-path="url(#05fd6054f8)"><path stroke-linecap="butt" transform="matrix(0.835853, 0, 0, 0.835853, 19.278021, 19.278024)" fill="none" stroke-linejoin="miter" d="M 174.928 -0.000813276 C 78.320152 -0.000813276 -0.000809759 78.320149 -0.000809759 174.927997 C -0.000809759 271.540518 78.320152 349.86148 174.928 349.86148 C 271.540522 349.86148 349.861484 271.540518 349.861484 174.927997 C 349.861484 78.320149 271.540522 -0.000813276 174.928 -0.000813276 Z M 174.928 -0.000813276 " stroke="#9fc131" stroke-width="8.972865" stroke-opacity="1" stroke-miterlimit="4"/></g></g></g></g></g><g fill="#f1f0ec" fill-opacity="1"><g transform="translate(76.581817, 178.693667)"><g><path d="M 15.296875 0.0625 L 1.828125 -49.125 L 8.140625 -49.125 L 18.734375 -6.953125 L 30.8125 -49.125 L 37.328125 -49.125 L 49.046875 -6.953125 L 59.78125 -49.125 L 66.109375 -49.125 L 52.34375 0 L 45.609375 0 L 33.890625 -40.5625 L 21.890625 0 Z M 15.296875 0.0625 "/></g></g></g><g fill="#f1f0ec" fill-opacity="1"><g transform="translate(144.438642, 178.693667)"><g><path d="M 20.484375 0.84375 C 17.171875 0.84375 14.226562 0.0820312 11.65625 -1.4375 C 9.082031 -2.957031 7.054688 -5.070312 5.578125 -7.78125 C 4.109375 -10.5 3.375 -13.707031 3.375 -17.40625 C 3.375 -21.050781 4.097656 -24.242188 5.546875 -26.984375 C 6.992188 -29.722656 9.015625 -31.847656 11.609375 -33.359375 C 14.210938 -34.878906 17.21875 -35.640625 20.625 -35.640625 C 24 -35.640625 26.910156 -34.878906 29.359375 -33.359375 C 31.816406 -31.847656 33.703125 -29.847656 35.015625 -27.359375 C 36.328125 -24.878906 36.984375 -22.21875 36.984375 -19.375 C 36.984375 -18.851562 36.96875 -18.332031 36.9375 -17.8125 C 36.914062 -17.300781 36.90625 -16.71875 36.90625 -16.0625 L 9.1875 -16.0625 C 9.332031 -13.394531 9.953125 -11.1875 11.046875 -9.4375 C 12.148438 -7.6875 13.53125 -6.363281 15.1875 -5.46875 C 16.851562 -4.582031 18.617188 -4.140625 20.484375 -4.140625 C 22.921875 -4.140625 24.957031 -4.703125 26.59375 -5.828125 C 28.226562 -6.953125 29.421875 -8.472656 30.171875 -10.390625 L 36 -10.390625 C 35.0625 -7.160156 33.269531 -4.476562 30.625 -2.34375 C 27.988281 -0.21875 24.609375 0.84375 20.484375 0.84375 Z M 20.484375 -30.671875 C 17.679688 -30.671875 15.191406 -29.816406 13.015625 -28.109375 C 10.835938 -26.398438 9.585938 -23.90625 9.265625 -20.625 L 31.15625 -20.625 C 31.019531 -23.757812 29.941406 -26.21875 27.921875 -28 C 25.910156 -29.78125 23.429688 -30.671875 20.484375 -30.671875 Z M 20.484375 -30.671875 "/></g></g></g><g fill="#f1f0ec" fill-opacity="1"><g transform="translate(184.366799, 178.693667)"><g><path d="M 23.4375 0.84375 C 20.582031 0.84375 18.039062 0.257812 15.8125 -0.90625 C 13.59375 -2.082031 11.898438 -3.722656 10.734375 -5.828125 L 10.171875 0 L 4.84375 0 L 4.84375 -50.53125 L 10.734375 -50.53125 L 10.734375 -29.046875 C 11.859375 -30.734375 13.460938 -32.253906 15.546875 -33.609375 C 17.628906 -34.960938 20.28125 -35.640625 23.5 -35.640625 C 26.96875 -35.640625 29.988281 -34.84375 32.5625 -33.25 C 35.132812 -31.664062 37.132812 -29.492188 38.5625 -26.734375 C 39.988281 -23.972656 40.703125 -20.835938 40.703125 -17.328125 C 40.703125 -13.816406 39.988281 -10.691406 38.5625 -7.953125 C 37.132812 -5.222656 35.117188 -3.070312 32.515625 -1.5 C 29.921875 0.0625 26.894531 0.84375 23.4375 0.84375 Z M 22.8125 -4.28125 C 25.144531 -4.28125 27.195312 -4.828125 28.96875 -5.921875 C 30.75 -7.023438 32.15625 -8.554688 33.1875 -10.515625 C 34.21875 -12.484375 34.734375 -14.78125 34.734375 -17.40625 C 34.734375 -20.019531 34.21875 -22.3125 33.1875 -24.28125 C 32.15625 -26.25 30.75 -27.78125 28.96875 -28.875 C 27.195312 -29.976562 25.144531 -30.53125 22.8125 -30.53125 C 20.46875 -30.53125 18.40625 -29.976562 16.625 -28.875 C 14.851562 -27.78125 13.453125 -26.25 12.421875 -24.28125 C 11.390625 -22.3125 10.875 -20.019531 10.875 -17.40625 C 10.875 -14.78125 11.390625 -12.484375 12.421875 -10.515625 C 13.453125 -8.554688 14.851562 -7.023438 16.625 -5.921875 C 18.40625 -4.828125 20.46875 -4.28125 22.8125 -4.28125 Z M 22.8125 -4.28125 "/></g></g></g><g fill="#f1f0ec" fill-opacity="1"><g transform="translate(228.435144, 178.693667)"><g/></g></g><g fill="#f1f0ec" fill-opacity="1"><g transform="translate(247.030866, 178.693667)"><g><path d="M 19.71875 0.84375 C 16.351562 0.84375 13.394531 0.222656 10.84375 -1.015625 C 8.289062 -2.253906 6.300781 -3.984375 4.875 -6.203125 C 3.445312 -8.429688 2.734375 -11.066406 2.734375 -14.109375 C 2.734375 -17.429688 3.703125 -20.390625 5.640625 -22.984375 C 7.585938 -25.578125 10.410156 -27.625 14.109375 -29.125 C 12.515625 -30.851562 11.363281 -32.5 10.65625 -34.0625 C 9.957031 -35.632812 9.609375 -37.332031 9.609375 -39.15625 C 9.609375 -42.289062 10.71875 -44.875 12.9375 -46.90625 C 15.164062 -48.945312 18.222656 -49.96875 22.109375 -49.96875 C 24.628906 -49.96875 26.820312 -49.484375 28.6875 -48.515625 C 30.5625 -47.554688 32.015625 -46.234375 33.046875 -44.546875 C 34.078125 -42.867188 34.546875 -40.957031 34.453125 -38.8125 L 28.625 -38.8125 C 28.675781 -40.914062 28.035156 -42.503906 26.703125 -43.578125 C 25.367188 -44.648438 23.835938 -45.1875 22.109375 -45.1875 C 20.003906 -45.1875 18.363281 -44.625 17.1875 -43.5 C 16.019531 -42.382812 15.4375 -40.957031 15.4375 -39.21875 C 15.4375 -37.726562 15.84375 -36.28125 16.65625 -34.875 C 17.476562 -33.46875 18.707031 -31.898438 20.34375 -30.171875 L 35.859375 -14.53125 C 37.210938 -16.488281 38.6875 -18.847656 40.28125 -21.609375 L 42.453125 -25.40625 L 48.703125 -25.40625 L 45.609375 -19.921875 C 43.554688 -16.234375 41.59375 -13.148438 39.71875 -10.671875 L 50.3125 0 L 42.875 0 L 36.34375 -6.59375 C 33.863281 -3.925781 31.289062 -2.019531 28.625 -0.875 C 25.957031 0.269531 22.988281 0.84375 19.71875 0.84375 Z M 8.625 -14.3125 C 8.625 -11.414062 9.65625 -9.003906 11.71875 -7.078125 C 13.78125 -5.160156 16.46875 -4.203125 19.78125 -4.203125 C 22.257812 -4.203125 24.515625 -4.679688 26.546875 -5.640625 C 28.585938 -6.609375 30.59375 -8.191406 32.5625 -10.390625 L 17.6875 -25.46875 C 14.59375 -24.25 12.304688 -22.703125 10.828125 -20.828125 C 9.359375 -18.960938 8.625 -16.789062 8.625 -14.3125 Z M 8.625 -14.3125 "/></g></g></g><g fill="#f1f0ec" fill-opacity="1"><g transform="translate(113.73811, 249.741201)"><g><path d="M 5.1875 0 L 5.1875 -49.125 L 35.078125 -49.125 L 35.078125 -44.28125 L 11.09375 -44.28125 L 11.09375 -27.015625 L 31.5 -27.015625 L 31.5 -22.25 L 11.09375 -22.25 L 11.09375 0 Z M 5.1875 0 "/></g></g></g><g fill="#f1f0ec" fill-opacity="1"><g transform="translate(151.210233, 249.741201)"><g><path d="M 4.84375 0 L 4.84375 -50.53125 L 10.734375 -50.53125 L 10.734375 0 Z M 4.84375 0 "/></g></g></g><g fill="#f1f0ec" fill-opacity="1"><g transform="translate(166.788537, 249.741201)"><g><path d="M 20.703125 0.84375 C 17.421875 0.84375 14.46875 0.09375 11.84375 -1.40625 C 9.226562 -2.90625 7.160156 -5.019531 5.640625 -7.75 C 4.128906 -10.488281 3.375 -13.707031 3.375 -17.40625 C 3.375 -21.101562 4.144531 -24.316406 5.6875 -27.046875 C 7.226562 -29.785156 9.316406 -31.898438 11.953125 -33.390625 C 14.597656 -34.890625 17.5625 -35.640625 20.84375 -35.640625 C 24.113281 -35.640625 27.054688 -34.890625 29.671875 -33.390625 C 32.296875 -31.898438 34.367188 -29.785156 35.890625 -27.046875 C 37.410156 -24.316406 38.171875 -21.101562 38.171875 -17.40625 C 38.171875 -13.707031 37.398438 -10.488281 35.859375 -7.75 C 34.316406 -5.019531 32.222656 -2.90625 29.578125 -1.40625 C 26.929688 0.09375 23.972656 0.84375 20.703125 0.84375 Z M 20.703125 -4.203125 C 22.710938 -4.203125 24.582031 -4.691406 26.3125 -5.671875 C 28.039062 -6.660156 29.441406 -8.132812 30.515625 -10.09375 C 31.597656 -12.0625 32.140625 -14.5 32.140625 -17.40625 C 32.140625 -20.300781 31.613281 -22.726562 30.5625 -24.6875 C 29.507812 -26.65625 28.113281 -28.128906 26.375 -29.109375 C 24.644531 -30.097656 22.800781 -30.59375 20.84375 -30.59375 C 18.832031 -30.59375 16.957031 -30.097656 15.21875 -29.109375 C 13.488281 -28.128906 12.085938 -26.65625 11.015625 -24.6875 C 9.941406 -22.726562 9.40625 -20.300781 9.40625 -17.40625 C 9.40625 -14.5 9.941406 -12.0625 11.015625 -10.09375 C 12.085938 -8.132812 13.476562 -6.660156 15.1875 -5.671875 C 16.894531 -4.691406 18.734375 -4.203125 20.703125 -4.203125 Z M 20.703125 -4.203125 "/></g></g></g><g fill="#f1f0ec" fill-opacity="1"><g transform="translate(208.330662, 249.741201)"><g><path d="M 11.859375 0 L 1.6875 -34.8125 L 7.578125 -34.8125 L 14.953125 -7.515625 L 23.09375 -34.8125 L 29.75 -34.8125 L 37.96875 -7.515625 L 45.265625 -34.8125 L 51.21875 -34.8125 L 41.046875 0 L 35.015625 0 L 26.453125 -28.703125 L 17.890625 0 Z M 11.859375 0 "/></g></g></g></svg>