<svg xmlns="http://www.w3.org/2000/svg" xmlns:xlink="http://www.w3.org/1999/xlink" width="500" zoomAndPan="magnify" viewBox="0 0 375 374.999991" height="500" preserveAspectRatio="xMidYMid meet" version="1.0"><defs><filter x="0%" y="0%" width="100%" height="100%" id="611885a1c2"><feColorMatrix values="0 0 0 0 1 0 0 0 0 1 0 0 0 0 1 0 0 0 1 0" color-interpolation-filters="sRGB"/></filter><g/><mask id="45b7b13b45"><g filter="url(#611885a1c2)"><rect x="-37.5" width="450" fill="#000000" y="-37.499999" height="449.999989" fill-opacity="0.87"/></g></mask><clipPath id="06a1592943"><path d="M 6.058594 6.058594 L 368.941406 6.058594 L 368.941406 368.941406 L 6.058594 368.941406 Z M 6.058594 6.058594 " clip-rule="nonzero"/></clipPath><clipPath id="01f4d7dfa8"><path d="M 187.5 6.058594 C 87.292969 6.058594 6.058594 87.292969 6.058594 187.5 C 6.058594 287.707031 87.292969 368.941406 187.5 368.941406 C 287.707031 368.941406 368.941406 287.707031 368.941406 187.5 C 368.941406 87.292969 287.707031 6.058594 187.5 6.058594 Z M 187.5 6.058594 " clip-rule="nonzero"/></clipPath><clipPath id="28ddd8336d"><path d="M 6.058594 6.058594 L 368.925781 6.058594 L 368.925781 368.925781 L 6.058594 368.925781 Z M 6.058594 6.058594 " clip-rule="nonzero"/></clipPath><clipPath id="61244300f7"><path d="M 187.492188 6.058594 C 87.289062 6.058594 6.058594 87.289062 6.058594 187.492188 C 6.058594 287.695312 87.289062 368.925781 187.492188 368.925781 C 287.695312 368.925781 368.925781 287.695312 368.925781 187.492188 C 368.925781 87.289062 287.695312 6.058594 187.492188 6.058594 Z M 187.492188 6.058594 " clip-rule="nonzero"/></clipPath><clipPath id="7c3e11899f"><rect x="0" width="375" y="0" height="375"/></clipPath></defs><g mask="url(#45b7b13b45)"><g transform="matrix(1, 0, 0, 1, 0, 0)"><g clip-path="url(#7c3e11899f)"><g clip-path="url(#06a1592943)"><g clip-path="url(#01f4d7dfa8)"><path fill="#6667ab" d="M 6.058594 6.058594 L 368.941406 6.058594 L 368.941406 368.941406 L 6.058594 368.941406 Z M 6.058594 6.058594 " fill-opacity="1" fill-rule="nonzero"/></g></g><g clip-path="url(#28ddd8336d)"><g clip-path="url(#61244300f7)"><path stroke-linecap="butt" transform="matrix(1.03717, 0, 0, 1.03717, 6.060234, 6.06023)" fill="none" stroke-linejoin="miter" d="M 174.929818 -0.00157738 C 78.31776 -0.00157738 -0.00158172 78.317764 -0.00158172 174.929823 C -0.00158172 271.541881 78.31776 349.861222 174.929818 349.861222 C 271.541876 349.861222 349.861218 271.541881 349.861218 174.929823 C 349.861218 78.317764 271.541876 -0.00157738 174.929818 -0.00157738 Z M 174.929818 -0.00157738 " stroke="#9fc131" stroke-width="7.231216" stroke-opacity="1" stroke-miterlimit="4"/></g></g></g></g></g><g fill="#f1f0ec" fill-opacity="1"><g transform="translate(49.867003, 176.572655)"><g><path d="M 18.984375 0.09375 L 2.265625 -60.953125 L 10.09375 -60.953125 L 23.25 -8.625 L 38.234375 -60.953125 L 46.328125 -60.953125 L 60.875 -8.625 L 74.1875 -60.953125 L 82.03125 -60.953125 L 64.953125 0 L 56.59375 0 L 42.0625 -50.328125 L 27.171875 0 Z M 18.984375 0.09375 "/></g></g></g><g fill="#f1f0ec" fill-opacity="1"><g transform="translate(134.067254, 176.572655)"><g><path d="M 25.421875 1.046875 C 21.304688 1.046875 17.648438 0.101562 14.453125 -1.78125 C 11.265625 -3.664062 8.753906 -6.289062 6.921875 -9.65625 C 5.097656 -13.03125 4.1875 -17.007812 4.1875 -21.59375 C 4.1875 -26.125 5.082031 -30.085938 6.875 -33.484375 C 8.675781 -36.878906 11.1875 -39.519531 14.40625 -41.40625 C 17.632812 -43.289062 21.363281 -44.234375 25.59375 -44.234375 C 29.78125 -44.234375 33.394531 -43.289062 36.4375 -41.40625 C 39.488281 -39.519531 41.828125 -37.035156 43.453125 -33.953125 C 45.078125 -30.878906 45.890625 -27.570312 45.890625 -24.03125 C 45.890625 -23.394531 45.875 -22.753906 45.84375 -22.109375 C 45.8125 -21.472656 45.796875 -20.75 45.796875 -19.9375 L 11.40625 -19.9375 C 11.582031 -16.632812 12.351562 -13.894531 13.71875 -11.71875 C 15.082031 -9.539062 16.789062 -7.898438 18.84375 -6.796875 C 20.90625 -5.691406 23.097656 -5.140625 25.421875 -5.140625 C 28.441406 -5.140625 30.96875 -5.832031 33 -7.21875 C 35.03125 -8.613281 36.507812 -10.503906 37.4375 -12.890625 L 44.671875 -12.890625 C 43.503906 -8.878906 41.28125 -5.550781 38 -2.90625 C 34.726562 -0.269531 30.535156 1.046875 25.421875 1.046875 Z M 25.421875 -38.046875 C 21.941406 -38.046875 18.851562 -36.988281 16.15625 -34.875 C 13.457031 -32.757812 11.90625 -29.664062 11.5 -25.59375 L 38.65625 -25.59375 C 38.488281 -29.488281 37.15625 -32.535156 34.65625 -34.734375 C 32.15625 -36.941406 29.078125 -38.046875 25.421875 -38.046875 Z M 25.421875 -38.046875 "/></g></g></g><g fill="#f1f0ec" fill-opacity="1"><g transform="translate(183.612171, 176.572655)"><g><path d="M 29.078125 1.046875 C 25.535156 1.046875 22.382812 0.320312 19.625 -1.125 C 16.875 -2.582031 14.773438 -4.617188 13.328125 -7.234375 L 12.625 0 L 6.015625 0 L 6.015625 -62.703125 L 13.328125 -62.703125 L 13.328125 -36.046875 C 14.710938 -38.140625 16.695312 -40.023438 19.28125 -41.703125 C 21.863281 -43.390625 25.160156 -44.234375 29.171875 -44.234375 C 33.460938 -44.234375 37.203125 -43.242188 40.390625 -41.265625 C 43.585938 -39.296875 46.070312 -36.597656 47.84375 -33.171875 C 49.613281 -29.753906 50.5 -25.867188 50.5 -21.515625 C 50.5 -17.160156 49.613281 -13.285156 47.84375 -9.890625 C 46.070312 -6.492188 43.578125 -3.820312 40.359375 -1.875 C 37.140625 0.0703125 33.378906 1.046875 29.078125 1.046875 Z M 28.296875 -5.3125 C 31.203125 -5.3125 33.753906 -5.992188 35.953125 -7.359375 C 38.160156 -8.722656 39.90625 -10.625 41.1875 -13.0625 C 42.46875 -15.5 43.109375 -18.34375 43.109375 -21.59375 C 43.109375 -24.84375 42.46875 -27.6875 41.1875 -30.125 C 39.90625 -32.5625 38.160156 -34.460938 35.953125 -35.828125 C 33.753906 -37.191406 31.203125 -37.875 28.296875 -37.875 C 25.398438 -37.875 22.847656 -37.191406 20.640625 -35.828125 C 18.429688 -34.460938 16.6875 -32.5625 15.40625 -30.125 C 14.132812 -27.6875 13.5 -24.84375 13.5 -21.59375 C 13.5 -18.34375 14.132812 -15.5 15.40625 -13.0625 C 16.6875 -10.625 18.429688 -8.722656 20.640625 -7.359375 C 22.847656 -5.992188 25.398438 -5.3125 28.296875 -5.3125 Z M 28.296875 -5.3125 "/></g></g></g><g fill="#f1f0ec" fill-opacity="1"><g transform="translate(238.294447, 176.572655)"><g/></g></g><g fill="#f1f0ec" fill-opacity="1"><g transform="translate(261.368978, 176.572655)"><g><path d="M 24.46875 1.046875 C 20.289062 1.046875 16.617188 0.28125 13.453125 -1.25 C 10.285156 -2.789062 7.816406 -4.941406 6.046875 -7.703125 C 4.273438 -10.460938 3.390625 -13.726562 3.390625 -17.5 C 3.390625 -21.625 4.59375 -25.296875 7 -28.515625 C 9.414062 -31.734375 12.914062 -34.273438 17.5 -36.140625 C 15.53125 -38.285156 14.109375 -40.328125 13.234375 -42.265625 C 12.367188 -44.210938 11.9375 -46.320312 11.9375 -48.59375 C 11.9375 -52.476562 13.3125 -55.679688 16.0625 -58.203125 C 18.820312 -60.734375 22.609375 -62 27.421875 -62 C 30.554688 -62 33.285156 -61.398438 35.609375 -60.203125 C 37.929688 -59.015625 39.726562 -57.375 41 -55.28125 C 42.28125 -53.195312 42.863281 -50.820312 42.75 -48.15625 L 35.53125 -48.15625 C 35.582031 -50.769531 34.78125 -52.742188 33.125 -54.078125 C 31.476562 -55.410156 29.578125 -56.078125 27.421875 -56.078125 C 24.816406 -56.078125 22.785156 -55.378906 21.328125 -53.984375 C 19.878906 -52.597656 19.15625 -50.828125 19.15625 -48.671875 C 19.15625 -46.816406 19.660156 -45.019531 20.671875 -43.28125 C 21.691406 -41.539062 23.21875 -39.59375 25.25 -37.4375 L 44.5 -18.03125 C 46.175781 -20.46875 48.003906 -23.394531 49.984375 -26.8125 L 52.6875 -31.515625 L 60.4375 -31.515625 L 56.59375 -24.734375 C 54.039062 -20.140625 51.601562 -16.304688 49.28125 -13.234375 L 62.4375 0 L 53.203125 0 L 45.109375 -8.1875 C 42.023438 -4.875 38.828125 -2.503906 35.515625 -1.078125 C 32.210938 0.335938 28.53125 1.046875 24.46875 1.046875 Z M 10.703125 -17.765625 C 10.703125 -14.160156 11.976562 -11.164062 14.53125 -8.78125 C 17.09375 -6.40625 20.4375 -5.21875 24.5625 -5.21875 C 27.632812 -5.21875 30.429688 -5.8125 32.953125 -7 C 35.484375 -8.195312 37.96875 -10.160156 40.40625 -12.890625 L 21.9375 -31.609375 C 18.113281 -30.097656 15.285156 -28.179688 13.453125 -25.859375 C 11.617188 -23.535156 10.703125 -20.835938 10.703125 -17.765625 Z M 10.703125 -17.765625 "/></g></g></g><g fill="#f1f0ec" fill-opacity="1"><g transform="translate(95.972449, 264.732102)"><g><path d="M 6.4375 0 L 6.4375 -60.953125 L 43.53125 -60.953125 L 43.53125 -54.953125 L 13.765625 -54.953125 L 13.765625 -33.53125 L 39.09375 -33.53125 L 39.09375 -27.609375 L 13.765625 -27.609375 L 13.765625 0 Z M 6.4375 0 "/></g></g></g><g fill="#f1f0ec" fill-opacity="1"><g transform="translate(142.469793, 264.732102)"><g><path d="M 6.015625 0 L 6.015625 -62.703125 L 13.328125 -62.703125 L 13.328125 0 Z M 6.015625 0 "/></g></g></g><g fill="#f1f0ec" fill-opacity="1"><g transform="translate(161.800156, 264.732102)"><g><path d="M 25.6875 1.046875 C 21.625 1.046875 17.96875 0.117188 14.71875 -1.734375 C 11.46875 -3.597656 8.898438 -6.226562 7.015625 -9.625 C 5.128906 -13.019531 4.1875 -17.007812 4.1875 -21.59375 C 4.1875 -26.175781 5.140625 -30.164062 7.046875 -33.5625 C 8.960938 -36.957031 11.5625 -39.582031 14.84375 -41.4375 C 18.125 -43.300781 21.796875 -44.234375 25.859375 -44.234375 C 29.921875 -44.234375 33.578125 -43.300781 36.828125 -41.4375 C 40.078125 -39.582031 42.644531 -36.957031 44.53125 -33.5625 C 46.425781 -30.164062 47.375 -26.175781 47.375 -21.59375 C 47.375 -17.007812 46.414062 -13.019531 44.5 -9.625 C 42.582031 -6.226562 39.984375 -3.597656 36.703125 -1.734375 C 33.421875 0.117188 29.75 1.046875 25.6875 1.046875 Z M 25.6875 -5.21875 C 28.1875 -5.21875 30.507812 -5.828125 32.65625 -7.046875 C 34.800781 -8.265625 36.539062 -10.09375 37.875 -12.53125 C 39.207031 -14.976562 39.875 -18 39.875 -21.59375 C 39.875 -25.195312 39.222656 -28.21875 37.921875 -30.65625 C 36.617188 -33.09375 34.890625 -34.921875 32.734375 -36.140625 C 30.585938 -37.359375 28.296875 -37.96875 25.859375 -37.96875 C 23.367188 -37.96875 21.046875 -37.359375 18.890625 -36.140625 C 16.742188 -34.921875 15.003906 -33.09375 13.671875 -30.65625 C 12.335938 -28.21875 11.671875 -25.195312 11.671875 -21.59375 C 11.671875 -18 12.335938 -14.976562 13.671875 -12.53125 C 15.003906 -10.09375 16.726562 -8.265625 18.84375 -7.046875 C 20.96875 -5.828125 23.25 -5.21875 25.6875 -5.21875 Z M 25.6875 -5.21875 "/></g></g></g><g fill="#f1f0ec" fill-opacity="1"><g transform="translate(213.347768, 264.732102)"><g><path d="M 14.71875 0 L 2.09375 -43.1875 L 9.40625 -43.1875 L 18.546875 -9.3125 L 28.65625 -43.1875 L 36.921875 -43.1875 L 47.109375 -9.3125 L 56.171875 -43.1875 L 63.5625 -43.1875 L 50.9375 0 L 43.453125 0 L 32.828125 -35.609375 L 22.203125 0 Z M 14.71875 0 "/></g></g></g></svg>