<svg xmlns="http://www.w3.org/2000/svg" xmlns:xlink="http://www.w3.org/1999/xlink" width="500" zoomAndPan="magnify" viewBox="0 0 375 374.999991" height="500" preserveAspectRatio="xMidYMid meet" version="1.0"><defs><filter x="0%" y="0%" width="100%" height="100%" id="48a3f60064"><feColorMatrix values="0 0 0 0 1 0 0 0 0 1 0 0 0 0 1 0 0 0 1 0" color-interpolation-filters="sRGB"/></filter><g/><mask id="ce27f14465"><g filter="url(#48a3f60064)"><rect x="-37.5" width="450" fill="#000000" y="-37.499999" height="449.999989" fill-opacity="0.87"/></g></mask><clipPath id="8c013876c1"><path d="M 4.203125 0 L 370.796875 0 L 370.796875 375 L 4.203125 375 Z M 4.203125 0 " clip-rule="nonzero"/></clipPath><clipPath id="45ab194ee7"><path d="M 187.5 0 C 86.269531 0 4.203125 83.945312 4.203125 187.5 C 4.203125 291.054688 86.269531 375 187.5 375 C 288.730469 375 370.796875 291.054688 370.796875 187.5 C 370.796875 83.945312 288.730469 0 187.5 0 Z M 187.5 0 " clip-rule="nonzero"/></clipPath><clipPath id="c0cc9ed958"><path d="M 4.203125 0.00390625 L 370.953125 0.00390625 L 370.953125 374.996094 L 4.203125 374.996094 Z M 4.203125 0.00390625 " clip-rule="nonzero"/></clipPath><clipPath id="251f5dec4c"><path d="M 187.496094 0.00390625 C 86.265625 0.00390625 4.203125 83.949219 4.203125 187.5 C 4.203125 291.050781 86.265625 374.996094 187.496094 374.996094 C 288.726562 374.996094 370.789062 291.050781 370.789062 187.5 C 370.789062 83.949219 288.726562 0.00390625 187.496094 0.00390625 Z M 187.496094 0.00390625 " clip-rule="nonzero"/></clipPath><clipPath id="123dbccdcd"><rect x="0" width="375" y="0" height="375"/></clipPath></defs><g mask="url(#ce27f14465)"><g transform="matrix(1, 0, 0, 1, 0, 0)"><g clip-path="url(#123dbccdcd)"><g clip-path="url(#8c013876c1)"><g clip-path="url(#45ab194ee7)"><path fill="#9fc131" d="M 4.203125 0 L 370.796875 0 L 370.796875 375.183594 L 4.203125 375.183594 Z M 4.203125 0 " fill-opacity="1" fill-rule="nonzero"/></g></g><g clip-path="url(#c0cc9ed958)"><g clip-path="url(#251f5dec4c)"><path stroke-linecap="butt" transform="matrix(0.75, 0, 0, 0.75, 4.203658, 0.00345005)" fill="none" stroke-linejoin="miter" d="M 244.389914 0.00060827 C 109.415956 0.00060827 -0.000711285 111.927692 -0.000711285 249.9954 C -0.000711285 388.063109 109.415956 499.990192 244.389914 499.990192 C 379.363873 499.990192 488.78054 388.063109 488.78054 249.9954 C 488.78054 111.927692 379.363873 0.00060827 244.389914 0.00060827 Z M 244.389914 0.00060827 " stroke="#6667ab" stroke-width="8" stroke-opacity="1" stroke-miterlimit="4"/></g></g></g></g></g><g fill="#6667ab" fill-opacity="1"><g transform="translate(38.932596, 171.749989)"><g><path d="M 20.484375 0.09375 L 2.4375 -65.796875 L 10.90625 -65.796875 L 25.09375 -9.3125 L 41.265625 -65.796875 L 50.015625 -65.796875 L 65.703125 -9.3125 L 80.09375 -65.796875 L 88.546875 -65.796875 L 70.125 0 L 61.09375 0 L 45.40625 -54.328125 L 29.328125 0 Z M 20.484375 0.09375 "/></g></g></g><g fill="#6667ab" fill-opacity="1"><g transform="translate(129.826774, 171.749989)"><g><path d="M 27.453125 1.125 C 23.003906 1.125 19.054688 0.109375 15.609375 -1.921875 C 12.160156 -3.960938 9.445312 -6.800781 7.46875 -10.4375 C 5.5 -14.070312 4.515625 -18.363281 4.515625 -23.3125 C 4.515625 -28.195312 5.484375 -32.472656 7.421875 -36.140625 C 9.367188 -39.804688 12.082031 -42.65625 15.5625 -44.6875 C 19.039062 -46.726562 23.066406 -47.75 27.640625 -47.75 C 32.148438 -47.75 36.050781 -46.726562 39.34375 -44.6875 C 42.632812 -42.65625 45.15625 -39.976562 46.90625 -36.65625 C 48.65625 -33.332031 49.53125 -29.757812 49.53125 -25.9375 C 49.53125 -25.25 49.515625 -24.5625 49.484375 -23.875 C 49.453125 -23.1875 49.4375 -22.40625 49.4375 -21.53125 L 12.3125 -21.53125 C 12.5 -17.957031 13.328125 -14.992188 14.796875 -12.640625 C 16.273438 -10.296875 18.125 -8.523438 20.34375 -7.328125 C 22.570312 -6.140625 24.941406 -5.546875 27.453125 -5.546875 C 30.710938 -5.546875 33.4375 -6.296875 35.625 -7.796875 C 37.820312 -9.304688 39.421875 -11.34375 40.421875 -13.90625 L 48.21875 -13.90625 C 46.96875 -9.582031 44.570312 -5.992188 41.03125 -3.140625 C 37.488281 -0.296875 32.960938 1.125 27.453125 1.125 Z M 27.453125 -41.078125 C 23.691406 -41.078125 20.351562 -39.929688 17.4375 -37.640625 C 14.519531 -35.359375 12.84375 -32.023438 12.40625 -27.640625 L 41.734375 -27.640625 C 41.546875 -31.835938 40.101562 -35.125 37.40625 -37.5 C 34.71875 -39.882812 31.398438 -41.078125 27.453125 -41.078125 Z M 27.453125 -41.078125 "/></g></g></g><g fill="#6667ab" fill-opacity="1"><g transform="translate(183.310527, 171.749989)"><g><path d="M 31.390625 1.125 C 27.566406 1.125 24.164062 0.34375 21.1875 -1.21875 C 18.21875 -2.789062 15.945312 -4.984375 14.375 -7.796875 L 13.625 0 L 6.484375 0 L 6.484375 -67.6875 L 14.375 -67.6875 L 14.375 -38.921875 C 15.882812 -41.171875 18.03125 -43.203125 20.8125 -45.015625 C 23.601562 -46.835938 27.160156 -47.75 31.484375 -47.75 C 36.128906 -47.75 40.171875 -46.679688 43.609375 -44.546875 C 47.054688 -42.421875 49.734375 -39.507812 51.640625 -35.8125 C 53.554688 -32.113281 54.515625 -27.914062 54.515625 -23.21875 C 54.515625 -18.519531 53.554688 -14.335938 51.640625 -10.671875 C 49.734375 -7.003906 47.039062 -4.117188 43.5625 -2.015625 C 40.09375 0.078125 36.035156 1.125 31.390625 1.125 Z M 30.546875 -5.734375 C 33.679688 -5.734375 36.4375 -6.46875 38.8125 -7.9375 C 41.195312 -9.414062 43.078125 -11.46875 44.453125 -14.09375 C 45.835938 -16.726562 46.53125 -19.800781 46.53125 -23.3125 C 46.53125 -26.820312 45.835938 -29.890625 44.453125 -32.515625 C 43.078125 -35.148438 41.195312 -37.203125 38.8125 -38.671875 C 36.4375 -40.148438 33.679688 -40.890625 30.546875 -40.890625 C 27.410156 -40.890625 24.648438 -40.148438 22.265625 -38.671875 C 19.890625 -37.203125 18.007812 -35.148438 16.625 -32.515625 C 15.25 -29.890625 14.5625 -26.820312 14.5625 -23.3125 C 14.5625 -19.800781 15.25 -16.726562 16.625 -14.09375 C 18.007812 -11.46875 19.890625 -9.414062 22.265625 -7.9375 C 24.648438 -6.46875 27.410156 -5.734375 30.546875 -5.734375 Z M 30.546875 -5.734375 "/></g></g></g><g fill="#6667ab" fill-opacity="1"><g transform="translate(242.340053, 171.749989)"><g/></g></g><g fill="#6667ab" fill-opacity="1"><g transform="translate(267.24901, 171.749989)"><g><path d="M 26.40625 1.125 C 21.894531 1.125 17.929688 0.296875 14.515625 -1.359375 C 11.109375 -3.023438 8.445312 -5.34375 6.53125 -8.3125 C 4.625 -11.289062 3.671875 -14.816406 3.671875 -18.890625 C 3.671875 -23.335938 4.96875 -27.300781 7.5625 -30.78125 C 10.164062 -34.257812 13.941406 -37.003906 18.890625 -39.015625 C 16.765625 -41.328125 15.226562 -43.53125 14.28125 -45.625 C 13.34375 -47.726562 12.875 -50.003906 12.875 -52.453125 C 12.875 -56.648438 14.363281 -60.109375 17.34375 -62.828125 C 20.320312 -65.554688 24.410156 -66.921875 29.609375 -66.921875 C 32.992188 -66.921875 35.9375 -66.28125 38.4375 -65 C 40.945312 -63.71875 42.890625 -61.945312 44.265625 -59.6875 C 45.648438 -57.4375 46.28125 -54.867188 46.15625 -51.984375 L 38.359375 -51.984375 C 38.421875 -54.804688 37.554688 -56.9375 35.765625 -58.375 C 33.984375 -59.8125 31.929688 -60.53125 29.609375 -60.53125 C 26.785156 -60.53125 24.59375 -59.78125 23.03125 -58.28125 C 21.46875 -56.78125 20.6875 -54.867188 20.6875 -52.546875 C 20.6875 -50.535156 21.234375 -48.585938 22.328125 -46.703125 C 23.421875 -44.828125 25.066406 -42.734375 27.265625 -40.421875 L 48.03125 -19.453125 C 49.851562 -22.085938 51.828125 -25.253906 53.953125 -28.953125 L 56.875 -34.03125 L 65.234375 -34.03125 L 61.09375 -26.703125 C 58.34375 -21.742188 55.710938 -17.601562 53.203125 -14.28125 L 67.390625 0 L 57.4375 0 L 48.6875 -8.84375 C 45.363281 -5.269531 41.914062 -2.710938 38.34375 -1.171875 C 34.78125 0.359375 30.800781 1.125 26.40625 1.125 Z M 11.5625 -19.171875 C 11.5625 -15.285156 12.9375 -12.054688 15.6875 -9.484375 C 18.445312 -6.921875 22.054688 -5.640625 26.515625 -5.640625 C 29.828125 -5.640625 32.847656 -6.28125 35.578125 -7.5625 C 38.304688 -8.851562 40.984375 -10.96875 43.609375 -13.90625 L 23.6875 -34.125 C 19.550781 -32.488281 16.492188 -30.414062 14.515625 -27.90625 C 12.546875 -25.40625 11.5625 -22.492188 11.5625 -19.171875 Z M 11.5625 -19.171875 "/></g></g></g><g fill="#6667ab" fill-opacity="1"><g transform="translate(88.702124, 266.999982)"><g><path d="M 6.953125 0 L 6.953125 -65.796875 L 47 -65.796875 L 47 -59.3125 L 14.859375 -59.3125 L 14.859375 -36.1875 L 42.203125 -36.1875 L 42.203125 -29.796875 L 14.859375 -29.796875 L 14.859375 0 Z M 6.953125 0 "/></g></g></g><g fill="#6667ab" fill-opacity="1"><g transform="translate(138.89601, 266.999982)"><g><path d="M 6.484375 0 L 6.484375 -67.6875 L 14.375 -67.6875 L 14.375 0 Z M 6.484375 0 "/></g></g></g><g fill="#6667ab" fill-opacity="1"><g transform="translate(159.763131, 266.999982)"><g><path d="M 27.734375 1.125 C 23.347656 1.125 19.398438 0.125 15.890625 -1.875 C 12.378906 -3.882812 9.601562 -6.722656 7.5625 -10.390625 C 5.53125 -14.054688 4.515625 -18.363281 4.515625 -23.3125 C 4.515625 -28.257812 5.546875 -32.566406 7.609375 -36.234375 C 9.679688 -39.898438 12.488281 -42.734375 16.03125 -44.734375 C 19.570312 -46.742188 23.535156 -47.75 27.921875 -47.75 C 32.304688 -47.75 36.253906 -46.742188 39.765625 -44.734375 C 43.273438 -42.734375 46.046875 -39.898438 48.078125 -36.234375 C 50.117188 -32.566406 51.140625 -28.257812 51.140625 -23.3125 C 51.140625 -18.363281 50.101562 -14.054688 48.03125 -10.390625 C 45.96875 -6.722656 43.164062 -3.882812 39.625 -1.875 C 36.082031 0.125 32.117188 1.125 27.734375 1.125 Z M 27.734375 -5.640625 C 30.421875 -5.640625 32.925781 -6.296875 35.25 -7.609375 C 37.570312 -8.929688 39.453125 -10.90625 40.890625 -13.53125 C 42.328125 -16.164062 43.046875 -19.425781 43.046875 -23.3125 C 43.046875 -27.195312 42.34375 -30.453125 40.9375 -33.078125 C 39.53125 -35.710938 37.664062 -37.6875 35.34375 -39 C 33.019531 -40.320312 30.546875 -40.984375 27.921875 -40.984375 C 25.222656 -40.984375 22.710938 -40.320312 20.390625 -39 C 18.078125 -37.6875 16.195312 -35.710938 14.75 -33.078125 C 13.3125 -30.453125 12.59375 -27.195312 12.59375 -23.3125 C 12.59375 -19.425781 13.3125 -16.164062 14.75 -13.53125 C 16.195312 -10.90625 18.0625 -8.929688 20.34375 -7.609375 C 22.632812 -6.296875 25.097656 -5.640625 27.734375 -5.640625 Z M 27.734375 -5.640625 "/></g></g></g><g fill="#6667ab" fill-opacity="1"><g transform="translate(215.408788, 266.999982)"><g><path d="M 15.890625 0 L 2.25 -46.625 L 10.15625 -46.625 L 20.015625 -10.0625 L 30.921875 -46.625 L 39.859375 -46.625 L 50.859375 -10.0625 L 60.625 -46.625 L 68.625 -46.625 L 54.984375 0 L 46.90625 0 L 35.4375 -38.453125 L 23.96875 0 Z M 15.890625 0 "/></g></g></g></svg>